<svg width="40" height="40" viewBox="0 0 40 40" fill="none" xmlns="http://www.w3.org/2000/svg">
<path d="M38.7389 4.3999H35.4379V1.20904C35.4375 0.541952 34.8814 0 34.1875 0H28.4928C27.8073 0 27.2423 0.541952 27.2423 1.20904C24.3216 1.24571 21.5499 2.36931 19.4466 4.3766C15.9212 1.0058 10.2769 0.239908 5.93927 2.65755C2.27637 4.71532 0 8.61686 0 12.8433C0 14.0523 0.192784 15.2562 0.539528 16.3082C0.782293 17.4227 1.42535 18.3828 2.04788 19.3083C2.57849 20.1014 3.12828 20.923 3.44289 21.8567C3.92887 23.2875 3.66513 28.0546 3.38041 30.8503C3.38041 34.8972 6.50646 38.4648 11.3421 39.94C11.7201 40.0548 12.1302 39.8951 12.4524 39.666C12.7719 39.4399 12.9598 38.9813 12.9598 38.5994C12.9598 30.7885 16.3157 25.5373 19.4502 25.5373C22.587 25.5373 25.9419 30.789 25.9419 38.5424L27.1437 38.6913V38.6965L25.9272 38.7918C25.9272 39.1784 26.1178 39.5392 26.4395 39.7666C26.6555 39.9176 26.9135 40 27.1767 40C27.299 40 27.4307 39.981 27.5494 39.9461C32.3882 38.4773 35.5138 34.9024 35.5089 30.7307C35.2255 28.0602 34.9626 23.3048 35.4553 21.8718C35.7677 20.9368 36.3202 20.1139 36.8592 19.3217C37.48 18.3905 38.1239 17.4283 38.3346 16.4363C38.7139 15.2937 38.9031 14.0894 38.9031 12.8506C38.9031 12.6474 38.9031 12.4739 38.8933 12.3087C39.514 12.2414 39.9996 11.7503 39.9996 11.1316V5.62663C39.9889 4.94186 39.4324 4.3999 38.7389 4.3999ZM29.7432 5.60894V2.41764H32.9371V5.60894C32.9371 6.27948 33.4985 6.81798 34.1875 6.81798H37.4885V9.90658H34.1875C33.4985 9.90658 32.9371 10.4447 32.9371 11.1152V14.3065H29.7432V11.1152C29.7432 10.4447 29.1809 9.90658 28.4928 9.90658H25.194V6.81754H28.4928C29.1809 6.81754 29.7432 6.27948 29.7432 5.60894ZM27.2423 4.3999H23.944C23.7986 4.3999 23.6718 4.43874 23.5424 4.48016C24.6902 3.93131 25.9464 3.64307 27.2423 3.62409V4.3999ZM35.9109 15.8051C35.7646 16.4795 35.296 17.1781 34.7489 17.9905C34.1585 18.8734 33.49 19.8744 33.0687 21.1025C32.2583 23.4856 32.9353 30.2034 33.0102 30.8377C33.0102 33.3671 31.2431 35.6687 28.3906 37.0128C27.943 29.0984 24.1734 23.1059 19.4413 23.1059C14.7382 23.1059 10.9847 29.025 10.5099 37.0223C7.64665 35.6855 5.87367 33.3909 5.86965 30.9646C5.94908 30.2034 6.62204 23.4765 5.81431 21.0938C5.39661 19.8641 4.73124 18.8695 4.14129 17.991C3.59819 17.1785 3.12828 16.4803 2.95111 15.6916C2.65033 14.7608 2.49548 13.8008 2.49548 12.839C2.49548 9.46646 4.29346 6.36966 7.18388 4.74855C10.8945 2.68128 15.7663 3.63876 18.4609 6.93059C18.6983 7.21452 19.0588 7.38452 19.4408 7.38452C19.8242 7.38452 20.1843 7.21452 20.4217 6.93059C21.1536 6.03266 22.0541 5.34401 23.0265 4.79213C22.8226 5.00917 22.6896 5.28791 22.6896 5.60463V11.1109C22.6896 11.7728 23.2515 12.3195 23.9396 12.3195H27.2374V15.5082C27.2374 16.1727 27.7984 16.7168 28.4879 16.7168H34.1853C34.8729 16.7168 35.4348 16.1727 35.4348 15.5082V12.3195H36.3675C36.3795 12.4718 36.3898 12.6168 36.3898 12.8295C36.3947 13.8258 36.2438 14.7841 35.9109 15.8051ZM12.7724 6.84257C12.7724 7.51181 12.2132 8.05161 11.5224 8.05161C10.8057 8.05161 10.1189 8.23499 9.4848 8.59356C8.00455 9.42461 7.0866 11.0487 7.0866 12.8437C7.0866 13.3585 7.17005 13.8685 7.32936 14.3501C7.34409 14.401 7.42486 14.6525 7.43423 14.703C7.48243 14.8316 7.77384 15.2566 7.9925 15.5777C8.6967 16.6365 9.57226 17.9448 10.172 19.7148C10.3867 20.3555 10.0306 21.0356 9.37234 21.2431C9.24515 21.2871 9.11217 21.3009 8.98499 21.3009C8.45885 21.3009 7.96975 20.9752 7.79704 20.4621C7.29679 18.9916 6.55377 17.8775 5.89643 16.8903C5.29442 15.9997 5.16634 15.771 5.08914 15.5824C5.06103 15.5172 4.99632 15.229 4.98159 15.1574C4.70759 14.3639 4.58576 13.6075 4.58576 12.8386C4.58576 10.1836 5.98389 7.75647 8.23125 6.49695C9.2523 5.92609 10.3617 5.63397 11.5242 5.63397C12.2186 5.63397 12.7724 6.17549 12.7724 6.84257Z" fill="black"/>
</svg>
