<svg width="40" height="40" viewBox="0 0 40 40" fill="none" xmlns="http://www.w3.org/2000/svg">
<path d="M15.2389 8.07325V13.3046H10.0811C9.55978 13.3046 9.13626 13.7341 9.13626 14.2628V22.0034C9.13626 22.5348 9.55978 22.9616 10.0811 22.9616H15.2389V28.1919C15.2389 28.7176 15.6624 29.1502 16.1837 29.1502H23.8172C24.3355 29.1502 24.7621 28.7176 24.7621 28.1919V22.9616H29.9172C30.4395 22.9616 30.862 22.5348 30.862 22.0034V14.2625C30.862 13.7338 30.4395 13.3043 29.9172 13.3043H24.7621V8.07325C24.7621 7.54489 24.3355 7.11535 23.8172 7.11535H16.1837C15.6624 7.11535 15.2389 7.54454 15.2389 8.07325ZM17.1285 14.2646V9.03321H22.8724V14.2646C22.8724 14.7943 23.2949 15.2225 23.8172 15.2225H28.9723V21.0492H23.8172C23.2949 21.0492 22.8724 21.4777 22.8724 22.0075V27.2357H17.1285V22.0075C17.1285 21.4777 16.705 21.0492 16.1837 21.0492H11.0259V15.2225H16.1837C16.7071 15.2225 17.1285 14.796 17.1285 14.2646ZM39.5128 4.94443C33.7272 1.70959 26.9818 0 20.0001 0C13.0174 0 6.26939 1.71164 0.488108 4.94443C0.165072 5.12602 -0.0244344 5.48032 0.00254155 5.8565C1.07551 20.5195 8.37351 33.2352 19.5227 39.8711C19.6707 39.9607 19.8363 40 20.0001 40C20.165 40 20.3306 39.9607 20.4783 39.8711C31.6274 33.2352 38.9288 20.5157 39.9974 5.85479C40.0247 5.4769 39.8355 5.12192 39.5128 4.94443ZM20.0001 37.9248C9.81065 31.6265 3.10208 19.8906 1.9357 6.32639C7.31909 3.43559 13.5482 1.91238 20.0001 1.91238C26.4481 1.91238 32.6795 3.43559 38.0652 6.32605C36.9012 19.8906 30.194 31.6237 20.0001 37.9248Z" fill="black"/>
</svg>
